<?xml version="1.0" encoding="UTF-8"?>
<svg xmlns="http://www.w3.org/2000/svg" xmlns:xlink="http://www.w3.org/1999/xlink" viewBox="0 0 26 26" version="1.1" fill="#73877b"><g id="surface1" fill="#73877b"><path style=" " d="M 24.875 0 C 24.652344 0.0234375 24.441406 0.125 24.28125 0.28125 L 19.625 4.9375 C 17.421875 3.347656 14.363281 3.632813 12.3125 5.59375 C 12.3125 5.671875 11.457031 6.503906 10.6875 7.25 L 9.71875 6.28125 C 9.476563 6.03125 9.121094 5.925781 8.78125 6 C 8.40625 6.066406 8.105469 6.339844 8 6.703125 C 7.894531 7.070313 8.003906 7.460938 8.28125 7.71875 L 18.28125 17.71875 C 18.679688 18.117188 19.320313 18.117188 19.71875 17.71875 C 20.117188 17.320313 20.117188 16.679688 19.71875 16.28125 L 18.75 15.3125 L 20.40625 13.6875 C 22.367188 11.726563 22.566406 8.679688 21.03125 6.40625 L 25.71875 1.71875 C 26.042969 1.417969 26.128906 0.941406 25.933594 0.546875 C 25.742188 0.148438 25.308594 -0.0703125 24.875 0 Z M 6.90625 7.96875 C 6.863281 7.976563 6.820313 7.988281 6.78125 8 C 6.40625 8.066406 6.105469 8.339844 6 8.703125 C 5.894531 9.070313 6.003906 9.460938 6.28125 9.71875 L 7.25 10.6875 L 5.59375 12.3125 C 3.632813 14.273438 3.433594 17.320313 4.96875 19.59375 L 0.28125 24.28125 C -0.117188 24.679688 -0.117188 25.320313 0.28125 25.71875 C 0.679688 26.117188 1.320313 26.117188 1.71875 25.71875 L 6.375 21.0625 C 8.578125 22.652344 11.636719 22.367188 13.6875 20.40625 C 13.6875 20.328125 14.542969 19.496094 15.3125 18.75 L 16.28125 19.71875 C 16.679688 20.117188 17.320313 20.117188 17.71875 19.71875 C 18.117188 19.320313 18.117188 18.679688 17.71875 18.28125 L 7.71875 8.28125 C 7.511719 8.058594 7.210938 7.945313 6.90625 7.96875 Z " fill="#73877b"/></g></svg>
