<?xml version="1.0" encoding="UTF-8"?>
<svg xmlns="http://www.w3.org/2000/svg" xmlns:xlink="http://www.w3.org/1999/xlink" viewBox="0 0 26 26" version="1.1" fill="#d30c7b"><g id="surface1" fill="#d30c7b"><path style=" " d="M 24.875 0 C 24.652344 0.0234375 24.441406 0.125 24.28125 0.28125 L 22.625 1.9375 C 20.421875 0.347656 17.363281 0.632813 15.3125 2.59375 C 15.3125 2.671875 14.457031 3.503906 13.6875 4.25 L 12.71875 3.28125 C 12.511719 3.058594 12.210938 2.945313 11.90625 2.96875 C 11.863281 2.976563 11.820313 2.988281 11.78125 3 C 11.40625 3.066406 11.105469 3.339844 11 3.703125 C 10.894531 4.070313 11.003906 4.460938 11.28125 4.71875 L 13.5625 7 L 10.28125 10.28125 C 9.882813 10.679688 9.882813 11.320313 10.28125 11.71875 C 10.679688 12.117188 11.320313 12.117188 11.71875 11.71875 L 15 8.4375 L 17.5625 11 L 14.28125 14.28125 C 13.882813 14.679688 13.882813 15.320313 14.28125 15.71875 C 14.679688 16.117188 15.320313 16.117188 15.71875 15.71875 L 19 12.4375 L 21.28125 14.71875 C 21.679688 15.117188 22.320313 15.117188 22.71875 14.71875 C 23.117188 14.320313 23.117188 13.679688 22.71875 13.28125 L 21.75 12.3125 L 23.40625 10.6875 C 25.367188 8.726563 25.566406 5.679688 24.03125 3.40625 L 25.71875 1.71875 C 26.042969 1.417969 26.128906 0.941406 25.933594 0.546875 C 25.742188 0.148438 25.308594 -0.0703125 24.875 0 Z M 3.90625 10.96875 C 3.863281 10.976563 3.820313 10.988281 3.78125 11 C 3.40625 11.066406 3.105469 11.339844 3 11.703125 C 2.894531 12.070313 3.003906 12.460938 3.28125 12.71875 L 4.25 13.6875 L 2.59375 15.3125 C 0.632813 17.273438 0.433594 20.320313 1.96875 22.59375 L 0.28125 24.28125 C -0.117188 24.679688 -0.117188 25.320313 0.28125 25.71875 C 0.679688 26.117188 1.320313 26.117188 1.71875 25.71875 L 3.375 24.0625 C 5.578125 25.652344 8.636719 25.367188 10.6875 23.40625 C 10.6875 23.328125 11.542969 22.496094 12.3125 21.75 L 13.28125 22.71875 C 13.679688 23.117188 14.320313 23.117188 14.71875 22.71875 C 15.117188 22.320313 15.117188 21.679688 14.71875 21.28125 L 4.71875 11.28125 C 4.511719 11.058594 4.210938 10.945313 3.90625 10.96875 Z " fill="#d30c7b"/></g></svg>
